<svg width="16" height="18" viewBox="0 0 16 18" fill="none" xmlns="http://www.w3.org/2000/svg">
<path d="M14.6667 0H0.611111C0.27309 0 0 0.32175 0 0.72V17.28C0 17.6783 0.27309 18 0.611111 18H14.6667C15.0047 18 15.2778 17.6783 15.2778 17.28V0.72C15.2778 0.32175 15.0047 0 14.6667 0ZM12.9021 5.25375H11.6818C10.725 5.25375 10.5398 5.78925 10.5398 6.57675V8.3115H12.8238L12.5259 11.0272H10.5398V18H8.15833V11.0295H6.16649V8.3115H8.15833V6.309C8.15833 3.98475 9.36337 2.718 11.1241 2.718C11.9682 2.718 12.692 2.79225 12.904 2.826V5.25375H12.9021Z" fill="#AAAAAA"/>
</svg>
