<svg width="16" height="18" viewBox="0 0 16 18" fill="none" xmlns="http://www.w3.org/2000/svg">
<path d="M7.97291 5.99872C6.57023 5.99872 5.42553 7.34738 5.42553 9C5.42553 10.6526 6.57023 12.0013 7.97291 12.0013C9.3756 12.0013 10.5203 10.6526 10.5203 9C10.5203 7.34738 9.3756 5.99872 7.97291 5.99872ZM15.6131 9C15.6131 7.75716 15.6227 6.52558 15.5635 5.28499C15.5042 3.84402 15.2252 2.56515 14.3309 1.51144C13.4346 0.455477 12.351 0.129006 11.128 0.0592092C10.0731 -0.0105879 9.02779 0.000669702 7.97482 0.000669702C6.91995 0.000669702 5.87462 -0.0105879 4.82165 0.0592092C3.59861 0.129006 2.51315 0.457728 1.6188 1.51144C0.722531 2.5674 0.445434 3.84402 0.386192 5.28499C0.326951 6.52783 0.336506 7.75941 0.336506 9C0.336506 10.2406 0.326951 11.4744 0.386192 12.715C0.445434 14.156 0.724442 15.4348 1.6188 16.4886C2.51506 17.5445 3.59861 17.871 4.82165 17.9408C5.87653 18.0106 6.92186 17.9993 7.97482 17.9993C9.0297 17.9993 10.075 18.0106 11.128 17.9408C12.351 17.871 13.4365 17.5423 14.3309 16.4886C15.2271 15.4326 15.5042 14.156 15.5635 12.715C15.6246 11.4744 15.6131 10.2428 15.6131 9V9ZM7.97291 13.6179C5.80391 13.6179 4.05343 11.5555 4.05343 9C4.05343 6.44452 5.80391 4.38213 7.97291 4.38213C10.1419 4.38213 11.8924 6.44452 11.8924 9C11.8924 11.5555 10.1419 13.6179 7.97291 13.6179ZM12.0529 5.27148C11.5465 5.27148 11.1376 4.78966 11.1376 4.193C11.1376 3.59635 11.5465 3.11452 12.0529 3.11452C12.5593 3.11452 12.9683 3.59635 12.9683 4.193C12.9685 4.33468 12.9449 4.475 12.8989 4.60593C12.853 4.73686 12.7856 4.85582 12.7005 4.956C12.6155 5.05618 12.5145 5.13561 12.4034 5.18975C12.2923 5.24388 12.1732 5.27166 12.0529 5.27148V5.27148Z" fill="#AAAAAA"/>
</svg>
