<svg width="32" height="10" viewBox="0 0 32 10" fill="none" xmlns="http://www.w3.org/2000/svg">
<path d="M0.992405 5.21881L1.5391 0.958829L2.38761 1.06772L3.00886 4.2134C3.0658 4.50624 3.10662 4.72513 3.13134 4.87008C3.19966 4.72131 3.30443 4.50339 3.44564 4.21629L4.84597 1.38321L5.6044 1.48054L5.0577 5.74053L4.5143 5.67079L4.97187 2.10531L3.27641 5.51193L2.76788 5.44667L2.0012 1.66204L1.5358 5.28855L0.992405 5.21881ZM7.96301 5.72644C7.74815 5.86624 7.54629 5.95849 7.35743 6.00317C7.1705 6.0481 6.97436 6.05739 6.76901 6.03104C6.43 5.98753 6.18001 5.87176 6.01904 5.68372C5.85832 5.49375 5.79449 5.26994 5.82756 5.01229C5.84695 4.86118 5.8985 4.72799 5.98222 4.61271C6.06812 4.49574 6.17113 4.40656 6.29124 4.34518C6.4133 4.28405 6.54655 4.24306 6.69101 4.22221C6.79716 4.20827 6.9555 4.20201 7.16601 4.20342C7.5948 4.20725 7.91343 4.1871 8.12191 4.14297C8.13305 4.07154 8.13986 4.02614 8.14235 4.00676C8.16969 3.79367 8.13956 3.63719 8.05195 3.53734C7.93345 3.40201 7.74246 3.31744 7.479 3.28363C7.23297 3.25206 7.04528 3.27228 6.91592 3.34429C6.78874 3.41461 6.68302 3.55562 6.59875 3.76732L6.09627 3.63194C6.17085 3.419 6.27 3.25253 6.3937 3.13254C6.51765 3.0106 6.68496 2.92673 6.89563 2.8809C7.10655 2.83315 7.34471 2.8263 7.61012 2.86036C7.87358 2.89417 8.08367 2.95263 8.24038 3.03576C8.39709 3.11888 8.50809 3.21288 8.5734 3.31775C8.63896 3.42068 8.67804 3.54581 8.69063 3.69315C8.69663 3.7845 8.68472 3.9464 8.65488 4.17887L8.56538 4.87628C8.50298 5.36253 8.47411 5.67191 8.47876 5.80444C8.4856 5.93528 8.51437 6.06402 8.56507 6.19064L8.01877 6.12053C7.97845 6.00509 7.95986 5.87372 7.96301 5.72644ZM8.06933 4.55269C7.86954 4.60582 7.57631 4.63514 7.18965 4.64065C6.97064 4.64405 6.81409 4.65941 6.72001 4.68671C6.62592 4.71402 6.54982 4.76235 6.49169 4.83168C6.43381 4.89908 6.39903 4.97831 6.38735 5.06936C6.36945 5.20884 6.40683 5.33179 6.49951 5.4382C6.59413 5.54486 6.74314 5.61124 6.94655 5.63735C7.14802 5.6632 7.33281 5.64261 7.50091 5.57557C7.66927 5.5066 7.80007 5.40031 7.89332 5.25672C7.96467 5.14576 8.01514 4.97501 8.04472 4.74448L8.06933 4.55269ZM9.12207 5.3258L9.64975 5.31081C9.65221 5.52182 9.71222 5.691 9.82978 5.81832C9.94928 5.9459 10.1282 6.02498 10.3664 6.05556C10.6067 6.08639 10.7911 6.06083 10.9198 5.97888C11.0487 5.895 11.1216 5.78719 11.1385 5.65546C11.1537 5.53729 11.1143 5.43771 11.0203 5.35673C10.9546 5.30104 10.7839 5.21908 10.5084 5.11086C10.1372 4.96477 9.88154 4.84729 9.74132 4.7584C9.60329 4.66783 9.50348 4.55558 9.4419 4.42165C9.38251 4.28604 9.36251 4.14268 9.3819 3.99157C9.39955 3.85403 9.44683 3.73112 9.52374 3.62284C9.60284 3.51287 9.7016 3.4261 9.82003 3.36254C9.9091 3.31292 10.026 3.27673 10.1707 3.25394C10.3176 3.22947 10.4714 3.22756 10.6322 3.24819C10.8744 3.27927 11.082 3.34136 11.2552 3.43447C11.4303 3.52783 11.5537 3.64016 11.6254 3.77145C11.6974 3.90081 11.7371 4.06737 11.7444 4.27114L11.2241 4.27524C11.2212 4.11341 11.1693 3.98072 11.0684 3.87719C10.9694 3.7739 10.8182 3.70921 10.6148 3.68311C10.3746 3.65228 10.198 3.66999 10.0852 3.73624C9.9723 3.80249 9.90903 3.88889 9.89535 3.99544C9.88665 4.06324 9.90013 4.127 9.93579 4.18671C9.9712 4.24836 10.0321 4.30343 10.1184 4.35192C10.1682 4.37801 10.3165 4.44233 10.5633 4.54489C10.9206 4.69117 11.1678 4.8056 11.3049 4.88817C11.4442 4.96906 11.5478 5.0749 11.6156 5.2057C11.6835 5.3365 11.706 5.49101 11.6832 5.66924C11.6608 5.84359 11.5883 6.00167 11.4658 6.14347C11.3454 6.28358 11.1838 6.38395 10.9811 6.44458C10.7786 6.50327 10.5563 6.51707 10.3142 6.486C9.91315 6.43453 9.61776 6.31195 9.42798 6.11825C9.24014 5.9248 9.13817 5.66065 9.12207 5.3258ZM13.3907 6.33439L13.407 6.80611C13.2558 6.81821 13.122 6.81681 13.0058 6.80189C12.816 6.77753 12.6726 6.7286 12.5757 6.65512C12.4788 6.58164 12.4152 6.49374 12.385 6.39141C12.3551 6.28714 12.3603 6.07809 12.4005 5.76426L12.6284 3.98878L12.2448 3.93955L12.297 3.53273L12.6806 3.58196L12.7787 2.81772L13.3391 2.57064L13.2008 3.64871L13.7267 3.71621L13.6745 4.12303L13.1485 4.05553L12.917 5.86007C12.8978 6.00923 12.8942 6.10625 12.9062 6.1511C12.9201 6.19621 12.9458 6.23396 12.9832 6.26437C13.0226 6.29502 13.081 6.31532 13.1585 6.32527C13.2167 6.33272 13.294 6.33576 13.3907 6.33439ZM16.0851 6.14554L16.617 6.28174C16.4913 6.58657 16.3019 6.81137 16.049 6.95614C15.7961 7.1009 15.4905 7.15029 15.1321 7.1043C14.6807 7.04637 14.3401 6.86186 14.1102 6.55078C13.8826 6.23801 13.8009 5.83075 13.8653 5.329C13.9319 4.80982 14.1173 4.42403 14.4215 4.17163C14.7256 3.91923 15.0908 3.82037 15.517 3.87507C15.9296 3.92802 16.2486 4.11173 16.4741 4.42619C16.6996 4.74065 16.7796 5.15263 16.7143 5.66213C16.7103 5.69312 16.7033 5.73949 16.6934 5.80123L14.392 5.50588C14.3679 5.84739 14.4305 6.11928 14.5797 6.32157C14.729 6.52386 14.9325 6.64154 15.1902 6.6746C15.382 6.69922 15.5521 6.66986 15.7006 6.58652C15.8492 6.50319 15.9773 6.3562 16.0851 6.14554ZM14.4763 5.07954L16.1994 5.30069C16.2095 5.03811 16.1686 4.83497 16.0768 4.69125C15.936 4.4684 15.733 4.33994 15.4676 4.30588C15.2274 4.27505 15.0146 4.32947 14.8293 4.46913C14.6459 4.60903 14.5283 4.81251 14.4763 5.07954ZM17.1519 7.29262L17.5479 4.2066L18.0187 4.26701L17.9586 4.73485C18.1068 4.53136 18.2358 4.40121 18.3455 4.34439C18.4571 4.28783 18.5739 4.26738 18.696 4.28304C18.8722 4.30566 19.0442 4.38484 19.2119 4.52057L18.9695 4.98273C18.8513 4.89077 18.7283 4.83658 18.6004 4.82017C18.4861 4.80551 18.379 4.8272 18.279 4.88526C18.1792 4.94137 18.1022 5.02797 18.0478 5.14504C17.9658 5.32356 17.9106 5.52324 17.8823 5.74409L17.6749 7.35974L17.1519 7.29262ZM22.4375 6.45273L22.983 6.66747C22.8054 7.1153 22.5469 7.4415 22.2076 7.64606C21.8704 7.84894 21.48 7.92191 21.0364 7.86497C20.5773 7.80605 20.2153 7.66508 19.9505 7.44207C19.6879 7.21736 19.5038 6.91805 19.3982 6.54415C19.2946 6.17049 19.2688 5.78025 19.321 5.37343C19.378 4.9298 19.5118 4.55414 19.7226 4.24644C19.9356 3.93705 20.209 3.71713 20.5428 3.58668C20.8787 3.45454 21.2346 3.41258 21.6105 3.46082C22.0367 3.51551 22.3811 3.66999 22.6439 3.92425C22.9066 4.17851 23.0699 4.50961 23.1337 4.91754L22.5619 4.97707C22.5029 4.65443 22.3885 4.41035 22.2187 4.24482C22.049 4.07928 21.8217 3.97824 21.5369 3.9417C21.2095 3.89968 20.9253 3.94296 20.6844 4.07153C20.4453 4.20036 20.2642 4.39175 20.141 4.64572C20.0181 4.89774 19.9386 5.16421 19.9026 5.44511C19.8561 5.80737 19.8677 6.13082 19.9376 6.41546C20.0095 6.69841 20.1484 6.92101 20.354 7.08327C20.5596 7.24553 20.7922 7.34332 21.0518 7.37664C21.3676 7.41716 21.6466 7.36042 21.8889 7.20641C22.1312 7.0524 22.314 6.80118 22.4375 6.45273ZM25.5028 7.97738C25.2879 8.11718 25.086 8.20943 24.8972 8.25411C24.7102 8.29904 24.5141 8.30833 24.3088 8.28198C23.9697 8.23847 23.7198 8.1227 23.5588 7.93466C23.3981 7.74469 23.3342 7.52088 23.3673 7.26323C23.3867 7.11212 23.4382 6.97893 23.522 6.86365C23.6079 6.74668 23.7109 6.6575 23.831 6.59612C23.953 6.53499 24.0863 6.494 24.2308 6.47315C24.3369 6.45921 24.4952 6.45294 24.7058 6.45436C25.1345 6.45819 25.4532 6.43804 25.6617 6.39391C25.6728 6.32248 25.6796 6.27708 25.6821 6.2577C25.7094 6.04461 25.6793 5.88813 25.5917 5.78828C25.4732 5.65295 25.2822 5.56838 25.0187 5.53457C24.7727 5.503 24.585 5.52322 24.4557 5.59523C24.3285 5.66555 24.2228 5.80656 24.1385 6.01826L23.636 5.88288C23.7106 5.66994 23.8097 5.50347 23.9334 5.38348C24.0574 5.26154 24.2247 5.17767 24.4354 5.13184C24.6463 5.08408 24.8845 5.07723 25.1499 5.11129C25.4133 5.14511 25.6234 5.20357 25.7801 5.2867C25.9368 5.36982 26.0478 5.46382 26.1132 5.56869C26.1787 5.67162 26.2178 5.79675 26.2304 5.94408C26.2364 6.03543 26.2245 6.19734 26.1946 6.42981L26.1051 7.12722C26.0427 7.61346 26.0139 7.92285 26.0185 8.05538C26.0253 8.18622 26.0541 8.31496 26.1048 8.44158L25.5585 8.37147C25.5182 8.25602 25.4996 8.12466 25.5028 7.97738ZM25.6091 6.80363C25.4093 6.85676 25.1161 6.88608 24.7294 6.89159C24.5104 6.89499 24.3538 6.91034 24.2598 6.93765C24.1657 6.96496 24.0896 7.01328 24.0314 7.08262C23.9736 7.15002 23.9388 7.22925 23.9271 7.3203C23.9092 7.45978 23.9466 7.58272 24.0393 7.68914C24.1339 7.7958 24.2829 7.86218 24.4863 7.88829C24.6878 7.91414 24.8726 7.89355 25.0407 7.82651C25.209 7.75754 25.3398 7.65125 25.4331 7.50766C25.5044 7.3967 25.5549 7.22595 25.5845 6.99542L25.6091 6.80363ZM26.747 8.52399L27.143 5.43798L27.6138 5.49839L27.5538 5.96623C27.702 5.76274 27.8309 5.63258 27.9406 5.57577C28.0522 5.51921 28.169 5.49876 28.2911 5.51442C28.4674 5.53704 28.6394 5.61622 28.807 5.75195L28.5646 6.21411C28.4464 6.12215 28.3234 6.06796 28.1956 6.05155C28.0813 6.03688 27.9741 6.05858 27.8741 6.11663C27.7744 6.17275 27.6973 6.25935 27.6429 6.37642C27.5609 6.55494 27.5057 6.75462 27.4774 6.97546L27.2701 8.59112L26.747 8.52399ZM30.7367 9.03601L30.7867 8.64663C30.5518 8.9276 30.2445 9.04372 29.8648 8.995C29.6187 8.96342 29.4008 8.86653 29.2109 8.70432C29.0229 8.54236 28.8874 8.33297 28.8041 8.07615C28.7231 7.81764 28.7029 7.5305 28.7434 7.21473C28.7829 6.90671 28.87 6.63433 29.0048 6.39761C29.1398 6.15894 29.3185 5.98595 29.541 5.87863C29.7635 5.77132 30.0017 5.73394 30.2555 5.76651C30.4414 5.79038 30.602 5.85135 30.7371 5.94942C30.8724 6.04556 30.9775 6.16243 31.0524 6.30003L31.2486 4.77155L31.7687 4.8383L31.222 9.09829L30.7367 9.03601ZM29.281 7.28372C29.2302 7.67891 29.2756 7.98503 29.4171 8.20208C29.5586 8.41912 29.7427 8.54218 29.9694 8.57127C30.1979 8.60061 30.4036 8.53248 30.5863 8.36689C30.7712 8.19961 30.8883 7.92419 30.9375 7.54062C30.9917 7.1183 30.9501 6.7979 30.8128 6.57942C30.6754 6.36093 30.4876 6.2364 30.2493 6.20582C30.0168 6.17599 29.8099 6.24593 29.6287 6.41564C29.4493 6.5856 29.3334 6.87496 29.281 7.28372Z" fill="white"/>
</svg>
