<svg width="16" height="18" viewBox="0 0 16 18" fill="none" xmlns="http://www.w3.org/2000/svg">
<path d="M15.3307 0H1.27517C0.937153 0 0.664062 0.32175 0.664062 0.72V17.28C0.664062 17.6783 0.937153 18 1.27517 18H15.3307C15.6687 18 15.9418 17.6783 15.9418 17.28V0.72C15.9418 0.32175 15.6687 0 15.3307 0ZM12.4146 6.51825C12.4203 6.624 12.4203 6.73425 12.4203 6.84225C12.4203 10.1453 10.2852 13.95 6.38368 13.95C5.18056 13.95 4.06528 13.5383 3.12569 12.8295C3.29757 12.852 3.46181 12.861 3.6375 12.861C4.63056 12.861 5.5434 12.465 6.27101 11.7945C5.33906 11.772 4.55608 11.052 4.28871 10.062C4.61528 10.1183 4.90937 10.1183 5.24549 10.017C4.76562 9.90214 4.33431 9.59509 4.02482 9.14801C3.71534 8.70094 3.54676 8.14142 3.54774 7.5645V7.533C3.82847 7.71975 4.15885 7.8345 4.50451 7.85025C4.21393 7.62209 3.97563 7.31297 3.81073 6.95032C3.64583 6.58766 3.55944 6.18267 3.5592 5.77125C3.5592 5.3055 3.66233 4.88025 3.84757 4.51125C4.3802 5.28376 5.04483 5.91557 5.79828 6.36562C6.55173 6.81568 7.37713 7.0739 8.22083 7.1235C7.92101 5.42475 8.99809 4.05 10.2929 4.05C10.904 4.05 11.454 4.3515 11.8417 4.8375C12.321 4.73175 12.7793 4.52025 13.188 4.23675C13.0295 4.815 12.6972 5.30325 12.2561 5.6115C12.6839 5.5575 13.0964 5.418 13.4783 5.22225C13.1899 5.72175 12.829 6.165 12.4146 6.51825V6.51825Z" fill="#AAAAAA"/>
</svg>
