<svg width="16" height="15" viewBox="0 0 16 15" fill="none" xmlns="http://www.w3.org/2000/svg">
<path d="M14.9589 2.80854C14.872 2.40019 14.7014 2.02779 14.4644 1.72862C14.2274 1.42945 13.9323 1.21401 13.6085 1.10385C12.4166 0.699707 7.63889 0.699707 7.63889 0.699707C7.63889 0.699707 2.86117 0.699707 1.6693 1.1017C1.34537 1.2115 1.05005 1.42683 0.813006 1.72605C0.575964 2.02527 0.405542 2.39786 0.318855 2.8064C-6.50447e-08 4.31117 0 7.44971 0 7.44971C0 7.44971 -6.50447e-08 10.5882 0.318855 12.0909C0.494482 12.9206 1.01283 13.5742 1.6693 13.7956C2.86117 14.1997 7.63889 14.1997 7.63889 14.1997C7.63889 14.1997 12.4166 14.1997 13.6085 13.7956C14.2666 13.5742 14.7833 12.9206 14.9589 12.0909C15.2778 10.5882 15.2778 7.44971 15.2778 7.44971C15.2778 7.44971 15.2778 4.31117 14.9589 2.80854ZM6.12134 10.3303V4.56913L10.0772 7.42821L6.12134 10.3303Z" fill="#AAAAAA"/>
</svg>
